<!-- Generator: Adobe Illustrator 19.0.0, SVG Export Plug-In  -->
<svg version="1.1"
	 xmlns="http://www.w3.org/2000/svg" xmlns:xlink="http://www.w3.org/1999/xlink" xmlns:a="http://ns.adobe.com/AdobeSVGViewerExtensions/3.0/"
	 x="0px" y="0px" width="751.692px" height="24.752px" viewBox="0 0 751.692 24.752"
	 style="enable-background:new 0 0 751.692 24.752;" xml:space="preserve">
<style type="text/css">
	.st0{fill:#010101;}
</style>
<defs>
</defs>
<g>
	<g>
		<g>
			<path class="st0" d="M140.797,12.369l12.366,12.366l12.366-12.366L153.163,0L140.797,12.369z M164.404,12.369l-11.241,11.243
				l-11.247-11.243l11.247-11.243L164.404,12.369z"/>
			<path class="st0" d="M164.29,12.369l12.366,12.366l12.369-12.366L176.656,0L164.29,12.369z M187.9,12.369l-11.243,11.243
				l-11.241-11.243l11.241-11.243L187.9,12.369z"/>
			<path class="st0" d="M93.801,12.369l12.366,12.366l12.369-12.366L106.167,0L93.801,12.369z M117.414,12.369l-11.247,11.243
				L94.927,12.369l11.241-11.243L117.414,12.369z"/>
			<path class="st0" d="M117.301,12.369l12.366,12.366l12.366-12.366L129.667,0L117.301,12.369z M140.907,12.369l-11.24,11.243
				l-11.244-11.243l11.244-11.243L140.907,12.369z"/>
		</g>
		<g>
			<path class="st0" d="M46.989,12.369l12.368,12.366l12.366-12.366L59.357,0L46.989,12.369z M70.602,12.369L59.357,23.613
				L48.115,12.369L59.357,1.126L70.602,12.369z"/>
			<path class="st0" d="M70.489,12.369l12.366,12.366l12.366-12.366L82.855,0L70.489,12.369z M94.096,12.369l-11.24,11.243
				L71.612,12.369L82.855,1.126L94.096,12.369z"/>
			<path class="st0" d="M0,12.369l12.366,12.366l12.368-12.366L12.366,0L0,12.369z M23.609,12.369L12.366,23.613L1.124,12.369
				L12.366,1.126L23.609,12.369z"/>
			<path class="st0" d="M23.495,12.369l12.366,12.366l12.368-12.366L35.861,0L23.495,12.369z M47.106,12.369L35.861,23.613
				L24.62,12.369L35.861,1.126L47.106,12.369z"/>
		</g>
	</g>
	<g>
		<g>
			<path class="st0" d="M328.749,12.382l12.366,12.369l12.366-12.369L341.115,0.016L328.749,12.382z M352.355,12.382l-11.24,11.247
				l-11.244-11.247l11.244-11.241L352.355,12.382z"/>
			<path class="st0" d="M352.245,12.382l12.366,12.369l12.366-12.369L364.611,0.016L352.245,12.382z M375.852,12.382l-11.241,11.247
				l-11.24-11.247l11.24-11.241L375.852,12.382z"/>
			<path class="st0" d="M281.756,12.382l12.366,12.369l12.366-12.369L294.122,0.016L281.756,12.382z M305.366,12.382l-11.243,11.247
				l-11.241-11.247l11.241-11.241L305.366,12.382z"/>
			<path class="st0" d="M305.253,12.382l12.369,12.369l12.366-12.369L317.622,0.016L305.253,12.382z M328.862,12.382l-11.24,11.247
				l-11.247-11.247l11.247-11.241L328.862,12.382z"/>
		</g>
		<g>
			<path class="st0" d="M234.945,12.382l12.366,12.369l12.366-12.369L247.311,0.016L234.945,12.382z M258.554,12.382l-11.243,11.247
				L236.07,12.382l11.241-11.241L258.554,12.382z"/>
			<path class="st0" d="M258.441,12.382l12.369,12.369l12.366-12.369L270.81,0.016L258.441,12.382z M282.05,12.382l-11.24,11.247
				l-11.247-11.247L270.81,1.142L282.05,12.382z"/>
			<path class="st0" d="M187.952,12.382l12.369,12.369l12.366-12.369L200.321,0.016L187.952,12.382z M211.561,12.382l-11.241,11.247
				l-11.243-11.247l11.243-11.241L211.561,12.382z"/>
			<path class="st0" d="M211.448,12.382l12.366,12.369l12.366-12.369L223.814,0.016L211.448,12.382z M235.061,12.382l-11.247,11.247
				l-11.24-11.247l11.24-11.241L235.061,12.382z"/>
		</g>
	</g>
</g>
<g>
	<g>
		<g>
			<path class="st0" d="M515.512,12.369l12.366,12.366l12.366-12.366L527.878,0L515.512,12.369z M539.118,12.369l-11.24,11.243
				l-11.247-11.243l11.247-11.243L539.118,12.369z"/>
			<path class="st0" d="M539.005,12.369l12.366,12.366l12.369-12.366L551.371,0L539.005,12.369z M562.615,12.369l-11.243,11.243
				l-11.24-11.243l11.24-11.243L562.615,12.369z"/>
			<path class="st0" d="M468.516,12.369l12.366,12.366l12.369-12.366L480.882,0L468.516,12.369z M492.129,12.369l-11.247,11.243
				l-11.241-11.243l11.241-11.243L492.129,12.369z"/>
			<path class="st0" d="M492.016,12.369l12.366,12.366l12.366-12.366L504.382,0L492.016,12.369z M515.622,12.369l-11.24,11.243
				l-11.244-11.243l11.244-11.243L515.622,12.369z"/>
		</g>
		<g>
			<path class="st0" d="M421.704,12.369l12.368,12.366l12.366-12.366L434.072,0L421.704,12.369z M445.317,12.369l-11.245,11.243
				L422.83,12.369l11.242-11.243L445.317,12.369z"/>
			<path class="st0" d="M445.204,12.369l12.366,12.366l12.366-12.366L457.57,0L445.204,12.369z M468.81,12.369l-11.24,11.243
				l-11.244-11.243L457.57,1.126L468.81,12.369z"/>
			<path class="st0" d="M374.715,12.369l12.366,12.366l12.368-12.366L387.081,0L374.715,12.369z M398.324,12.369l-11.243,11.243
				l-11.242-11.243l11.242-11.243L398.324,12.369z"/>
			<path class="st0" d="M398.21,12.369l12.366,12.366l12.368-12.366L410.576,0L398.21,12.369z M421.821,12.369l-11.245,11.243
				l-11.241-11.243l11.241-11.243L421.821,12.369z"/>
		</g>
	</g>
	<g>
		<g>
			<path class="st0" d="M703.464,12.382l12.366,12.369l12.366-12.369L715.83,0.016L703.464,12.382z M727.07,12.382l-11.24,11.247
				l-11.244-11.247L715.83,1.142L727.07,12.382z"/>
			<path class="st0" d="M726.96,12.382l12.366,12.369l12.366-12.369L739.326,0.016L726.96,12.382z M750.567,12.382l-11.241,11.247
				l-11.24-11.247l11.24-11.241L750.567,12.382z"/>
			<path class="st0" d="M656.471,12.382l12.366,12.369l12.366-12.369L668.837,0.016L656.471,12.382z M680.081,12.382l-11.244,11.247
				l-11.24-11.247l11.24-11.241L680.081,12.382z"/>
			<path class="st0" d="M679.967,12.382l12.369,12.369l12.366-12.369L692.337,0.016L679.967,12.382z M703.577,12.382l-11.24,11.247
				L681.09,12.382l11.247-11.241L703.577,12.382z"/>
		</g>
		<g>
			<path class="st0" d="M609.659,12.382l12.366,12.369l12.366-12.369L622.025,0.016L609.659,12.382z M633.269,12.382l-11.243,11.247
				l-11.241-11.247l11.241-11.241L633.269,12.382z"/>
			<path class="st0" d="M633.156,12.382l12.369,12.369l12.366-12.369L645.525,0.016L633.156,12.382z M656.765,12.382l-11.24,11.247
				l-11.247-11.247l11.247-11.241L656.765,12.382z"/>
			<path class="st0" d="M562.667,12.382l12.369,12.369l12.366-12.369L575.036,0.016L562.667,12.382z M586.276,12.382l-11.241,11.247
				l-11.243-11.247l11.243-11.241L586.276,12.382z"/>
			<path class="st0" d="M586.163,12.382l12.366,12.369l12.366-12.369L598.529,0.016L586.163,12.382z M609.776,12.382l-11.247,11.247
				l-11.24-11.247l11.24-11.241L609.776,12.382z"/>
		</g>
	</g>
</g>
</svg>